<mxfile host="app.diagrams.net" agent="Mozilla/5.0 (Windows NT 10.0; Win64; x64) AppleWebKit/537.36 (KHTML, like Gecko) Chrome/127.0.0.0 Safari/537.36" version="24.7.6">
  <diagram id="C5RBs43oDa-KdzZeNtuy" name="Page-1">
    <mxGraphModel dx="1413" dy="738" grid="1" gridSize="10" guides="1" tooltips="1" connect="1" arrows="1" fold="1" page="1" pageScale="1" pageWidth="827" pageHeight="1169" math="0" shadow="0">
      <root>
        <mxCell id="WIyWlLk6GJQsqaUBKTNV-0" />
        <mxCell id="WIyWlLk6GJQsqaUBKTNV-1" parent="WIyWlLk6GJQsqaUBKTNV-0" />
        <mxCell id="iWtSNF-4RAmwumI9VgB_-20" value="groceries" style="shape=table;startSize=30;container=1;collapsible=1;childLayout=tableLayout;fixedRows=1;rowLines=0;fontStyle=1;align=center;resizeLast=1;html=1;" vertex="1" parent="WIyWlLk6GJQsqaUBKTNV-1">
          <mxGeometry x="80" y="80" width="360" height="180" as="geometry">
            <mxRectangle x="80" y="80" width="90" height="30" as="alternateBounds" />
          </mxGeometry>
        </mxCell>
        <mxCell id="iWtSNF-4RAmwumI9VgB_-48" style="shape=tableRow;horizontal=0;startSize=0;swimlaneHead=0;swimlaneBody=0;fillColor=none;collapsible=0;dropTarget=0;points=[[0,0.5],[1,0.5]];portConstraint=eastwest;top=0;left=0;right=0;bottom=1;" vertex="1" parent="iWtSNF-4RAmwumI9VgB_-20">
          <mxGeometry y="30" width="360" height="30" as="geometry" />
        </mxCell>
        <mxCell id="iWtSNF-4RAmwumI9VgB_-49" style="shape=partialRectangle;connectable=0;fillColor=none;top=0;left=0;bottom=0;right=0;fontStyle=1;overflow=hidden;whiteSpace=wrap;html=1;" vertex="1" parent="iWtSNF-4RAmwumI9VgB_-48">
          <mxGeometry width="30" height="30" as="geometry">
            <mxRectangle width="30" height="30" as="alternateBounds" />
          </mxGeometry>
        </mxCell>
        <mxCell id="iWtSNF-4RAmwumI9VgB_-50" value="Column name" style="shape=partialRectangle;connectable=0;fillColor=none;top=0;left=0;bottom=0;right=0;align=left;spacingLeft=6;fontStyle=5;overflow=hidden;whiteSpace=wrap;html=1;" vertex="1" parent="iWtSNF-4RAmwumI9VgB_-48">
          <mxGeometry x="30" width="150" height="30" as="geometry">
            <mxRectangle width="150" height="30" as="alternateBounds" />
          </mxGeometry>
        </mxCell>
        <mxCell id="iWtSNF-4RAmwumI9VgB_-51" value="Data type" style="shape=partialRectangle;connectable=0;fillColor=none;top=0;left=0;bottom=0;right=0;align=left;spacingLeft=6;fontStyle=5;overflow=hidden;whiteSpace=wrap;html=1;" vertex="1" parent="iWtSNF-4RAmwumI9VgB_-48">
          <mxGeometry x="180" width="90" height="30" as="geometry">
            <mxRectangle width="90" height="30" as="alternateBounds" />
          </mxGeometry>
        </mxCell>
        <mxCell id="iWtSNF-4RAmwumI9VgB_-62" value="Allow Nulls" style="shape=partialRectangle;connectable=0;fillColor=none;top=0;left=0;bottom=0;right=0;align=left;spacingLeft=6;fontStyle=5;overflow=hidden;whiteSpace=wrap;html=1;" vertex="1" parent="iWtSNF-4RAmwumI9VgB_-48">
          <mxGeometry x="270" width="90" height="30" as="geometry">
            <mxRectangle width="90" height="30" as="alternateBounds" />
          </mxGeometry>
        </mxCell>
        <mxCell id="iWtSNF-4RAmwumI9VgB_-21" value="" style="shape=tableRow;horizontal=0;startSize=0;swimlaneHead=0;swimlaneBody=0;fillColor=none;collapsible=0;dropTarget=0;points=[[0,0.5],[1,0.5]];portConstraint=eastwest;top=0;left=0;right=0;bottom=1;" vertex="1" parent="iWtSNF-4RAmwumI9VgB_-20">
          <mxGeometry y="60" width="360" height="40" as="geometry" />
        </mxCell>
        <mxCell id="iWtSNF-4RAmwumI9VgB_-22" value="PK" style="shape=partialRectangle;connectable=0;fillColor=none;top=0;left=0;bottom=0;right=0;fontStyle=1;overflow=hidden;whiteSpace=wrap;html=1;" vertex="1" parent="iWtSNF-4RAmwumI9VgB_-21">
          <mxGeometry width="30" height="40" as="geometry">
            <mxRectangle width="30" height="40" as="alternateBounds" />
          </mxGeometry>
        </mxCell>
        <mxCell id="iWtSNF-4RAmwumI9VgB_-23" value="grocery_id" style="shape=partialRectangle;connectable=0;fillColor=none;top=0;left=0;bottom=0;right=0;align=left;spacingLeft=6;fontStyle=5;overflow=hidden;whiteSpace=wrap;html=1;" vertex="1" parent="iWtSNF-4RAmwumI9VgB_-21">
          <mxGeometry x="30" width="150" height="40" as="geometry">
            <mxRectangle width="150" height="40" as="alternateBounds" />
          </mxGeometry>
        </mxCell>
        <mxCell id="iWtSNF-4RAmwumI9VgB_-52" style="shape=partialRectangle;connectable=0;fillColor=none;top=0;left=0;bottom=0;right=0;align=left;spacingLeft=6;fontStyle=5;overflow=hidden;whiteSpace=wrap;html=1;" vertex="1" parent="iWtSNF-4RAmwumI9VgB_-21">
          <mxGeometry x="180" width="90" height="40" as="geometry">
            <mxRectangle width="90" height="40" as="alternateBounds" />
          </mxGeometry>
        </mxCell>
        <mxCell id="iWtSNF-4RAmwumI9VgB_-63" style="shape=partialRectangle;connectable=0;fillColor=none;top=0;left=0;bottom=0;right=0;align=left;spacingLeft=6;fontStyle=5;overflow=hidden;whiteSpace=wrap;html=1;" vertex="1" parent="iWtSNF-4RAmwumI9VgB_-21">
          <mxGeometry x="270" width="90" height="40" as="geometry">
            <mxRectangle width="90" height="40" as="alternateBounds" />
          </mxGeometry>
        </mxCell>
        <mxCell id="iWtSNF-4RAmwumI9VgB_-24" value="" style="shape=tableRow;horizontal=0;startSize=0;swimlaneHead=0;swimlaneBody=0;fillColor=none;collapsible=0;dropTarget=0;points=[[0,0.5],[1,0.5]];portConstraint=eastwest;top=0;left=0;right=0;bottom=0;" vertex="1" parent="iWtSNF-4RAmwumI9VgB_-20">
          <mxGeometry y="100" width="360" height="40" as="geometry" />
        </mxCell>
        <mxCell id="iWtSNF-4RAmwumI9VgB_-25" value="" style="shape=partialRectangle;connectable=0;fillColor=none;top=0;left=0;bottom=0;right=0;editable=1;overflow=hidden;whiteSpace=wrap;html=1;" vertex="1" parent="iWtSNF-4RAmwumI9VgB_-24">
          <mxGeometry width="30" height="40" as="geometry">
            <mxRectangle width="30" height="40" as="alternateBounds" />
          </mxGeometry>
        </mxCell>
        <mxCell id="iWtSNF-4RAmwumI9VgB_-26" value="grocery_name" style="shape=partialRectangle;connectable=0;fillColor=none;top=0;left=0;bottom=0;right=0;align=left;spacingLeft=6;overflow=hidden;whiteSpace=wrap;html=1;" vertex="1" parent="iWtSNF-4RAmwumI9VgB_-24">
          <mxGeometry x="30" width="150" height="40" as="geometry">
            <mxRectangle width="150" height="40" as="alternateBounds" />
          </mxGeometry>
        </mxCell>
        <mxCell id="iWtSNF-4RAmwumI9VgB_-53" style="shape=partialRectangle;connectable=0;fillColor=none;top=0;left=0;bottom=0;right=0;align=left;spacingLeft=6;overflow=hidden;whiteSpace=wrap;html=1;" vertex="1" parent="iWtSNF-4RAmwumI9VgB_-24">
          <mxGeometry x="180" width="90" height="40" as="geometry">
            <mxRectangle width="90" height="40" as="alternateBounds" />
          </mxGeometry>
        </mxCell>
        <mxCell id="iWtSNF-4RAmwumI9VgB_-64" style="shape=partialRectangle;connectable=0;fillColor=none;top=0;left=0;bottom=0;right=0;align=left;spacingLeft=6;overflow=hidden;whiteSpace=wrap;html=1;" vertex="1" parent="iWtSNF-4RAmwumI9VgB_-24">
          <mxGeometry x="270" width="90" height="40" as="geometry">
            <mxRectangle width="90" height="40" as="alternateBounds" />
          </mxGeometry>
        </mxCell>
        <mxCell id="iWtSNF-4RAmwumI9VgB_-27" value="" style="shape=tableRow;horizontal=0;startSize=0;swimlaneHead=0;swimlaneBody=0;fillColor=none;collapsible=0;dropTarget=0;points=[[0,0.5],[1,0.5]];portConstraint=eastwest;top=0;left=0;right=0;bottom=0;" vertex="1" parent="iWtSNF-4RAmwumI9VgB_-20">
          <mxGeometry y="140" width="360" height="40" as="geometry" />
        </mxCell>
        <mxCell id="iWtSNF-4RAmwumI9VgB_-28" value="" style="shape=partialRectangle;connectable=0;fillColor=none;top=0;left=0;bottom=0;right=0;editable=1;overflow=hidden;whiteSpace=wrap;html=1;" vertex="1" parent="iWtSNF-4RAmwumI9VgB_-27">
          <mxGeometry width="30" height="40" as="geometry">
            <mxRectangle width="30" height="40" as="alternateBounds" />
          </mxGeometry>
        </mxCell>
        <mxCell id="iWtSNF-4RAmwumI9VgB_-29" value="customer_id" style="shape=partialRectangle;connectable=0;fillColor=none;top=0;left=0;bottom=0;right=0;align=left;spacingLeft=6;overflow=hidden;whiteSpace=wrap;html=1;" vertex="1" parent="iWtSNF-4RAmwumI9VgB_-27">
          <mxGeometry x="30" width="150" height="40" as="geometry">
            <mxRectangle width="150" height="40" as="alternateBounds" />
          </mxGeometry>
        </mxCell>
        <mxCell id="iWtSNF-4RAmwumI9VgB_-54" style="shape=partialRectangle;connectable=0;fillColor=none;top=0;left=0;bottom=0;right=0;align=left;spacingLeft=6;overflow=hidden;whiteSpace=wrap;html=1;" vertex="1" parent="iWtSNF-4RAmwumI9VgB_-27">
          <mxGeometry x="180" width="90" height="40" as="geometry">
            <mxRectangle width="90" height="40" as="alternateBounds" />
          </mxGeometry>
        </mxCell>
        <mxCell id="iWtSNF-4RAmwumI9VgB_-65" style="shape=partialRectangle;connectable=0;fillColor=none;top=0;left=0;bottom=0;right=0;align=left;spacingLeft=6;overflow=hidden;whiteSpace=wrap;html=1;" vertex="1" parent="iWtSNF-4RAmwumI9VgB_-27">
          <mxGeometry x="270" width="90" height="40" as="geometry">
            <mxRectangle width="90" height="40" as="alternateBounds" />
          </mxGeometry>
        </mxCell>
      </root>
    </mxGraphModel>
  </diagram>
</mxfile>
